<mxfile host="app.diagrams.net" agent="Mozilla/5.0 (Macintosh; Intel Mac OS X 10_15_7) AppleWebKit/605.1.15 (KHTML, like Gecko) Version/18.0.1 Safari/605.1.15" version="24.7.17">
  <diagram name="PÃ¡gina-1" id="jwxUT50I_0sCfAWHS3V6">
    <mxGraphModel dx="2261" dy="827" grid="1" gridSize="10" guides="1" tooltips="1" connect="1" arrows="1" fold="1" page="1" pageScale="1" pageWidth="827" pageHeight="1169" math="0" shadow="0">
      <root>
        <mxCell id="0" />
        <mxCell id="1" parent="0" />
        <mxCell id="w-e8tKdFTUfJYsXYDsu--73" value="" style="rounded=0;whiteSpace=wrap;html=1;" vertex="1" parent="1">
          <mxGeometry x="630" y="270" width="120" height="100" as="geometry" />
        </mxCell>
        <mxCell id="w-e8tKdFTUfJYsXYDsu--1" value="" style="rounded=0;whiteSpace=wrap;html=1;" vertex="1" parent="1">
          <mxGeometry x="40" y="70" width="430" height="230" as="geometry" />
        </mxCell>
        <mxCell id="w-e8tKdFTUfJYsXYDsu--2" value="List" style="text;html=1;align=center;verticalAlign=middle;resizable=0;points=[];autosize=1;strokeColor=none;fillColor=none;" vertex="1" parent="1">
          <mxGeometry x="40" y="28" width="40" height="30" as="geometry" />
        </mxCell>
        <mxCell id="w-e8tKdFTUfJYsXYDsu--3" value="" style="rounded=0;whiteSpace=wrap;html=1;" vertex="1" parent="1">
          <mxGeometry x="40" y="70" width="430" height="60" as="geometry" />
        </mxCell>
        <mxCell id="w-e8tKdFTUfJYsXYDsu--5" value="TV Series App" style="text;html=1;align=center;verticalAlign=middle;whiteSpace=wrap;rounded=0;labelBackgroundColor=none;labelBorderColor=default;" vertex="1" parent="1">
          <mxGeometry x="50" y="85" width="60" height="30" as="geometry" />
        </mxCell>
        <mxCell id="w-e8tKdFTUfJYsXYDsu--11" value="Search ?" style="text;html=1;align=center;verticalAlign=middle;whiteSpace=wrap;rounded=0;labelBackgroundColor=none;labelBorderColor=none;strokeColor=default;" vertex="1" parent="1">
          <mxGeometry x="130" y="85" width="270" height="30" as="geometry" />
        </mxCell>
        <mxCell id="w-e8tKdFTUfJYsXYDsu--81" style="edgeStyle=orthogonalEdgeStyle;rounded=0;orthogonalLoop=1;jettySize=auto;html=1;dashed=1;" edge="1" parent="1" source="w-e8tKdFTUfJYsXYDsu--12" target="w-e8tKdFTUfJYsXYDsu--78">
          <mxGeometry relative="1" as="geometry">
            <Array as="points">
              <mxPoint x="1030" y="100" />
            </Array>
          </mxGeometry>
        </mxCell>
        <mxCell id="w-e8tKdFTUfJYsXYDsu--12" value="Add +" style="text;html=1;align=center;verticalAlign=middle;whiteSpace=wrap;rounded=0;labelBackgroundColor=none;labelBorderColor=none;strokeColor=default;" vertex="1" parent="1">
          <mxGeometry x="400" y="85" width="60" height="30" as="geometry" />
        </mxCell>
        <mxCell id="w-e8tKdFTUfJYsXYDsu--17" value="" style="rounded=0;whiteSpace=wrap;html=1;" vertex="1" parent="1">
          <mxGeometry x="40" y="372" width="430" height="288" as="geometry" />
        </mxCell>
        <mxCell id="w-e8tKdFTUfJYsXYDsu--18" value="Details" style="text;html=1;align=center;verticalAlign=middle;resizable=0;points=[];autosize=1;strokeColor=none;fillColor=none;" vertex="1" parent="1">
          <mxGeometry x="30" y="330" width="60" height="30" as="geometry" />
        </mxCell>
        <mxCell id="w-e8tKdFTUfJYsXYDsu--19" value="" style="rounded=0;whiteSpace=wrap;html=1;" vertex="1" parent="1">
          <mxGeometry x="40" y="372" width="430" height="60" as="geometry" />
        </mxCell>
        <mxCell id="w-e8tKdFTUfJYsXYDsu--20" value="TV Series App" style="text;html=1;align=center;verticalAlign=middle;whiteSpace=wrap;rounded=0;labelBackgroundColor=none;labelBorderColor=default;" vertex="1" parent="1">
          <mxGeometry x="50" y="387" width="60" height="30" as="geometry" />
        </mxCell>
        <mxCell id="w-e8tKdFTUfJYsXYDsu--29" value="Image" style="rounded=0;whiteSpace=wrap;html=1;" vertex="1" parent="1">
          <mxGeometry x="244" y="500" width="206" height="140" as="geometry" />
        </mxCell>
        <mxCell id="w-e8tKdFTUfJYsXYDsu--30" value="Title" style="rounded=0;whiteSpace=wrap;html=1;" vertex="1" parent="1">
          <mxGeometry x="70" y="440" width="130" height="30" as="geometry" />
        </mxCell>
        <mxCell id="w-e8tKdFTUfJYsXYDsu--31" value="Description" style="rounded=0;whiteSpace=wrap;html=1;" vertex="1" parent="1">
          <mxGeometry x="70" y="500" width="130" height="80" as="geometry" />
        </mxCell>
        <mxCell id="w-e8tKdFTUfJYsXYDsu--32" value="Series" style="rounded=0;whiteSpace=wrap;html=1;" vertex="1" parent="1">
          <mxGeometry x="70" y="592" width="70" height="40" as="geometry" />
        </mxCell>
        <mxCell id="w-e8tKdFTUfJYsXYDsu--33" value="+ Fields" style="rounded=0;whiteSpace=wrap;html=1;" vertex="1" parent="1">
          <mxGeometry x="150" y="590" width="50" height="42" as="geometry" />
        </mxCell>
        <mxCell id="w-e8tKdFTUfJYsXYDsu--68" style="edgeStyle=orthogonalEdgeStyle;rounded=0;orthogonalLoop=1;jettySize=auto;html=1;dashed=1;" edge="1" parent="1" target="w-e8tKdFTUfJYsXYDsu--73">
          <mxGeometry relative="1" as="geometry">
            <mxPoint x="460" y="450" as="sourcePoint" />
            <mxPoint x="630" y="300" as="targetPoint" />
            <Array as="points">
              <mxPoint x="610" y="450" />
              <mxPoint x="610" y="320" />
            </Array>
          </mxGeometry>
        </mxCell>
        <mxCell id="w-e8tKdFTUfJYsXYDsu--46" value="" style="rounded=0;whiteSpace=wrap;html=1;" vertex="1" parent="1">
          <mxGeometry x="60" y="150" width="390" height="120" as="geometry" />
        </mxCell>
        <mxCell id="w-e8tKdFTUfJYsXYDsu--64" value="" style="edgeStyle=orthogonalEdgeStyle;rounded=0;orthogonalLoop=1;jettySize=auto;html=1;" edge="1" parent="1" source="w-e8tKdFTUfJYsXYDsu--47" target="w-e8tKdFTUfJYsXYDsu--52">
          <mxGeometry relative="1" as="geometry" />
        </mxCell>
        <mxCell id="w-e8tKdFTUfJYsXYDsu--47" value="Episodes" style="rounded=0;whiteSpace=wrap;html=1;" vertex="1" parent="1">
          <mxGeometry x="60" y="150" width="390" height="30" as="geometry" />
        </mxCell>
        <mxCell id="w-e8tKdFTUfJYsXYDsu--69" style="edgeStyle=orthogonalEdgeStyle;rounded=0;orthogonalLoop=1;jettySize=auto;html=1;dashed=1;" edge="1" parent="1" source="w-e8tKdFTUfJYsXYDsu--52" target="w-e8tKdFTUfJYsXYDsu--19">
          <mxGeometry relative="1" as="geometry">
            <Array as="points">
              <mxPoint x="-10" y="195" />
              <mxPoint x="-10" y="402" />
            </Array>
          </mxGeometry>
        </mxCell>
        <mxCell id="w-e8tKdFTUfJYsXYDsu--70" value="Navigate" style="edgeLabel;html=1;align=center;verticalAlign=middle;resizable=0;points=[];" vertex="1" connectable="0" parent="w-e8tKdFTUfJYsXYDsu--69">
          <mxGeometry x="0.315" y="2" relative="1" as="geometry">
            <mxPoint x="-52" y="-20" as="offset" />
          </mxGeometry>
        </mxCell>
        <mxCell id="w-e8tKdFTUfJYsXYDsu--52" value="Ep 1" style="rounded=0;whiteSpace=wrap;html=1;align=left;" vertex="1" parent="1">
          <mxGeometry x="60" y="180" width="390" height="30" as="geometry" />
        </mxCell>
        <mxCell id="w-e8tKdFTUfJYsXYDsu--53" value="Ep 2" style="rounded=0;whiteSpace=wrap;html=1;align=left;" vertex="1" parent="1">
          <mxGeometry x="60" y="210" width="390" height="30" as="geometry" />
        </mxCell>
        <mxCell id="w-e8tKdFTUfJYsXYDsu--54" value="Ep 3" style="rounded=0;whiteSpace=wrap;html=1;align=left;" vertex="1" parent="1">
          <mxGeometry x="60" y="240" width="390" height="30" as="geometry" />
        </mxCell>
        <mxCell id="w-e8tKdFTUfJYsXYDsu--67" style="edgeStyle=orthogonalEdgeStyle;rounded=0;orthogonalLoop=1;jettySize=auto;html=1;dashed=1;" edge="1" parent="1" target="w-e8tKdFTUfJYsXYDsu--73">
          <mxGeometry relative="1" as="geometry">
            <mxPoint x="430" y="195" as="sourcePoint" />
            <mxPoint x="690" y="270" as="targetPoint" />
          </mxGeometry>
        </mxCell>
        <mxCell id="w-e8tKdFTUfJYsXYDsu--66" value="Dropdown" style="text;html=1;align=center;verticalAlign=middle;resizable=0;points=[];autosize=1;strokeColor=none;fillColor=none;" vertex="1" parent="1">
          <mxGeometry x="590" y="235" width="80" height="30" as="geometry" />
        </mxCell>
        <mxCell id="w-e8tKdFTUfJYsXYDsu--71" value="Delete" style="rounded=0;whiteSpace=wrap;html=1;" vertex="1" parent="1">
          <mxGeometry x="640" y="325" width="100" height="30" as="geometry" />
        </mxCell>
        <mxCell id="w-e8tKdFTUfJYsXYDsu--80" style="edgeStyle=orthogonalEdgeStyle;rounded=0;orthogonalLoop=1;jettySize=auto;html=1;dashed=1;" edge="1" parent="1" source="w-e8tKdFTUfJYsXYDsu--72" target="w-e8tKdFTUfJYsXYDsu--78">
          <mxGeometry relative="1" as="geometry" />
        </mxCell>
        <mxCell id="w-e8tKdFTUfJYsXYDsu--72" value="Edit" style="rounded=0;whiteSpace=wrap;html=1;" vertex="1" parent="1">
          <mxGeometry x="640" y="280" width="100" height="30" as="geometry" />
        </mxCell>
        <mxCell id="w-e8tKdFTUfJYsXYDsu--78" value="" style="whiteSpace=wrap;html=1;aspect=fixed;" vertex="1" parent="1">
          <mxGeometry x="827" y="205" width="263" height="263" as="geometry" />
        </mxCell>
        <mxCell id="w-e8tKdFTUfJYsXYDsu--79" value="Pop Up - Create/Update" style="text;html=1;align=center;verticalAlign=middle;resizable=0;points=[];autosize=1;strokeColor=none;fillColor=none;" vertex="1" parent="1">
          <mxGeometry x="827" y="150" width="150" height="30" as="geometry" />
        </mxCell>
        <mxCell id="w-e8tKdFTUfJYsXYDsu--84" style="edgeStyle=orthogonalEdgeStyle;rounded=0;orthogonalLoop=1;jettySize=auto;html=1;dashed=1;" edge="1" parent="1" source="w-e8tKdFTUfJYsXYDsu--82" target="w-e8tKdFTUfJYsXYDsu--1">
          <mxGeometry relative="1" as="geometry">
            <Array as="points">
              <mxPoint x="265" y="320" />
              <mxPoint x="265" y="320" />
            </Array>
          </mxGeometry>
        </mxCell>
        <mxCell id="w-e8tKdFTUfJYsXYDsu--85" value="Navigate" style="edgeLabel;html=1;align=center;verticalAlign=middle;resizable=0;points=[];" vertex="1" connectable="0" parent="w-e8tKdFTUfJYsXYDsu--84">
          <mxGeometry x="-0.0345" y="-4" relative="1" as="geometry">
            <mxPoint x="31" as="offset" />
          </mxGeometry>
        </mxCell>
        <mxCell id="w-e8tKdFTUfJYsXYDsu--82" value="Search ?" style="text;html=1;align=center;verticalAlign=middle;whiteSpace=wrap;rounded=0;labelBackgroundColor=none;labelBorderColor=none;strokeColor=default;" vertex="1" parent="1">
          <mxGeometry x="130" y="387" width="270" height="30" as="geometry" />
        </mxCell>
        <mxCell id="w-e8tKdFTUfJYsXYDsu--87" value="Add +" style="text;html=1;align=center;verticalAlign=middle;whiteSpace=wrap;rounded=0;labelBackgroundColor=none;labelBorderColor=none;strokeColor=default;" vertex="1" parent="1">
          <mxGeometry x="400" y="387" width="60" height="30" as="geometry" />
        </mxCell>
        <mxCell id="w-e8tKdFTUfJYsXYDsu--88" value="Title" style="rounded=0;whiteSpace=wrap;html=1;" vertex="1" parent="1">
          <mxGeometry x="892" y="230" width="128" height="30" as="geometry" />
        </mxCell>
        <mxCell id="w-e8tKdFTUfJYsXYDsu--89" value="Description" style="rounded=0;whiteSpace=wrap;html=1;" vertex="1" parent="1">
          <mxGeometry x="892" y="270" width="130" height="60" as="geometry" />
        </mxCell>
        <mxCell id="w-e8tKdFTUfJYsXYDsu--90" value="Series" style="rounded=0;whiteSpace=wrap;html=1;" vertex="1" parent="1">
          <mxGeometry x="892" y="340" width="128" height="40" as="geometry" />
        </mxCell>
        <mxCell id="w-e8tKdFTUfJYsXYDsu--91" value="+ Fields" style="rounded=0;whiteSpace=wrap;html=1;" vertex="1" parent="1">
          <mxGeometry x="892" y="390" width="128" height="40" as="geometry" />
        </mxCell>
        <mxCell id="w-e8tKdFTUfJYsXYDsu--92" value="X" style="ellipse;whiteSpace=wrap;html=1;aspect=fixed;" vertex="1" parent="1">
          <mxGeometry x="840" y="220" width="20" height="20" as="geometry" />
        </mxCell>
        <mxCell id="w-e8tKdFTUfJYsXYDsu--94" value="Save" style="rounded=0;whiteSpace=wrap;html=1;" vertex="1" parent="1">
          <mxGeometry x="1030" y="432" width="48" height="30" as="geometry" />
        </mxCell>
        <mxCell id="w-e8tKdFTUfJYsXYDsu--97" value="Dropdown button" style="rounded=1;fillColor=#F1F2F4;strokeColor=none;html=1;whiteSpace=wrap;fontColor=#596780;align=left;fontSize=12;spacingLeft=10;sketch=0;" vertex="1" parent="1">
          <mxGeometry x="340" y="184.25" width="100" height="21.5" as="geometry" />
        </mxCell>
        <mxCell id="w-e8tKdFTUfJYsXYDsu--98" value="" style="shape=triangle;direction=south;fillColor=#596780;strokeColor=none;html=1;sketch=0;" vertex="1" parent="w-e8tKdFTUfJYsXYDsu--97">
          <mxGeometry x="1" y="0.5" width="12" height="6" relative="1" as="geometry">
            <mxPoint x="-20" y="-3" as="offset" />
          </mxGeometry>
        </mxCell>
        <mxCell id="w-e8tKdFTUfJYsXYDsu--100" value="Dropdown button" style="rounded=1;fillColor=#F1F2F4;strokeColor=none;html=1;whiteSpace=wrap;fontColor=#596780;align=left;fontSize=12;spacingLeft=10;sketch=0;" vertex="1" parent="1">
          <mxGeometry x="340" y="214.25" width="100" height="21.5" as="geometry" />
        </mxCell>
        <mxCell id="w-e8tKdFTUfJYsXYDsu--101" value="" style="shape=triangle;direction=south;fillColor=#596780;strokeColor=none;html=1;sketch=0;" vertex="1" parent="w-e8tKdFTUfJYsXYDsu--100">
          <mxGeometry x="1" y="0.5" width="12" height="6" relative="1" as="geometry">
            <mxPoint x="-20" y="-3" as="offset" />
          </mxGeometry>
        </mxCell>
        <mxCell id="w-e8tKdFTUfJYsXYDsu--103" value="Dropdown button" style="rounded=1;fillColor=#F1F2F4;strokeColor=none;html=1;whiteSpace=wrap;fontColor=#596780;align=left;fontSize=12;spacingLeft=10;sketch=0;" vertex="1" parent="1">
          <mxGeometry x="340" y="244.25" width="100" height="21.5" as="geometry" />
        </mxCell>
        <mxCell id="w-e8tKdFTUfJYsXYDsu--104" value="" style="shape=triangle;direction=south;fillColor=#596780;strokeColor=none;html=1;sketch=0;" vertex="1" parent="w-e8tKdFTUfJYsXYDsu--103">
          <mxGeometry x="1" y="0.5" width="12" height="6" relative="1" as="geometry">
            <mxPoint x="-20" y="-3" as="offset" />
          </mxGeometry>
        </mxCell>
        <mxCell id="w-e8tKdFTUfJYsXYDsu--105" value="Dropdown button" style="rounded=1;fillColor=#F1F2F4;strokeColor=none;html=1;whiteSpace=wrap;fontColor=#596780;align=left;fontSize=12;spacingLeft=10;sketch=0;" vertex="1" parent="1">
          <mxGeometry x="350" y="440" width="100" height="21.5" as="geometry" />
        </mxCell>
        <mxCell id="w-e8tKdFTUfJYsXYDsu--106" value="" style="shape=triangle;direction=south;fillColor=#596780;strokeColor=none;html=1;sketch=0;" vertex="1" parent="w-e8tKdFTUfJYsXYDsu--105">
          <mxGeometry x="1" y="0.5" width="12" height="6" relative="1" as="geometry">
            <mxPoint x="-20" y="-3" as="offset" />
          </mxGeometry>
        </mxCell>
      </root>
    </mxGraphModel>
  </diagram>
</mxfile>
